PathFileType	4	(X/Y/Z)	C:\Users\JDoe\SprintCalib.trc
DataRate	CameraRate	NumFrames	NumMarkers	Units	OrigDataRate	OrigDataStartFrame	OrigNumFrames
250.00	250.00	       4	65	mm	250.00	85	       337
Frame#	Time	C7			T8			T12			IJ			PX			R.AA			R.AC			R.Scapula			R.HeadHum			R.Hum			R.Epi.Med			R.Epi.Lat			R.Ulna			R.Wrist.Uln			R.Wrist.Rad			R.Hand			R.Hand2			R.Hand5			L.AA			L.AC			L.Scapula			L.HeadHum			L.Hum			L.Epi.Med			L.Epi.Lat			L.Ulna			L.Wrist.Uln			L.Wrist.Rad			L.Hand			L.Hand2			L.Hand5			Tete.H			Tete.D			Tete.G			Sacral			R.EIAS			LEIAS			R.Crete			L.Crete			R.GT			R.Hip			R.Knee.Med			R.Knee.Lat			R.TTA			R.Fibula			R.Ankle.Med			R.Ankle.Lat			R.Calca			R.Foot.Med			R.Foot.Lat			L.GT			L.Hip			L.Knee.Med			L.Knee.Lat			L.TTA			L.Fibula			L.Ankle.Med			L.Ankle.Lat			L.Calca			L.Foot.Med			L.Foot.Lat			StartG			StartD			StartAvt			StartArr			
		X1	Y1	Z1	X2	Y2	Z2	X3	Y3	Z3	X4	Y4	Z4	X5	Y5	Z5	X6	Y6	Z6	X7	Y7	Z7	X8	Y8	Z8	X9	Y9	Z9	X10	Y10	Z10	X11	Y11	Z11	X12	Y12	Z12	X13	Y13	Z13	X14	Y14	Z14	X15	Y15	Z15	X16	Y16	Z16	X17	Y17	Z17	X18	Y18	Z18	X19	Y19	Z19	X20	Y20	Z20	X21	Y21	Z21	X22	Y22	Z22	X23	Y23	Z23	X24	Y24	Z24	X25	Y25	Z25	X26	Y26	Z26	X27	Y27	Z27	X28	Y28	Z28	X29	Y29	Z29	X30	Y30	Z30	X31	Y31	Z31	X32	Y32	Z32	X33	Y33	Z33	X34	Y34	Z34	X35	Y35	Z35	X36	Y36	Z36	X37	Y37	Z37	X38	Y38	Z38	X39	Y39	Z39	X40	Y40	Z40	X41	Y41	Z41	X42	Y42	Z42	X43	Y43	Z43	X44	Y44	Z44	X45	Y45	Z45	X46	Y46	Z46	X47	Y47	Z47	X48	Y48	Z48	X49	Y49	Z49	X50	Y50	Z50	X51	Y51	Z51	X52	Y52	Z52	X53	Y53	Z53	X54	Y54	Z54	X55	Y55	Z55	X56	Y56	Z56	X57	Y57	Z57	X58	Y58	Z58	X59	Y59	Z59	X60	Y60	Z60	X61	Y61	Z61	X62	Y62	Z62	X63	Y63	Z63	X64	Y64	Z64	X65	Y65	Z65	

85	0.336	-98.67735	88.11816	1479.56323	-51.22507	74.17837	1254.81738	-94.34522	74.78242	1129.49707	-242.41496	85.43658	1401.12512	-290.04453	80.40128	1252.29089	-51.94290	174.15071	1435.83789	-201.06342	202.61572	1420.28809	-119.39692	224.91592	1457.12183	-96.05151	311.20068	1404.47839	-55.39828	369.68033	1275.60046	-107.51406	392.00955	1151.93237	-59.71059	443.13754	1227.98206	-50.64637	558.27814	1138.33521	-53.23611	656.20605	1025.48279	-91.21889	676.11890	1066.26318	-59.37589	709.23590	1003.22571	-67.78368	698.35742	957.86304	-82.70318	754.66937	1014.67902	-50.43865	-11.93621	1430.79919	-202.31635	-28.51345	1428.70837	-131.15782	-63.43475	1466.31067	-112.12716	-158.06505	1421.84766	-71.80864	-196.43484	1281.62915	-148.87701	-256.68359	1199.58887	-95.86874	-299.02414	1275.19470	-100.99688	-384.09070	1155.83691	-136.89436	-531.16937	1082.76917	-173.52940	-558.56183	1125.80725	-156.73665	-590.44244	1066.31177	-184.07126	-637.07330	1071.99109	-167.80244	-584.43872	1021.51288	-140.34653	76.90945	1728.59241	-253.47279	76.39674	1714.60779	-56.44909	88.24133	1648.06909	-62.33232	71.51491	1024.94141	-277.42749	153.89169	1011.48126	-283.79581	3.23327	1020.06726	-167.71782	228.99582	1054.23804	-185.44952	-73.39140	1058.49524	-128.81070	241.84840	927.56213	-263.69159	220.73755	749.97876	-124.35671	141.11398	484.44354	-130.55141	263.08221	518.44995	-176.42551	214.32765	408.68271	-119.84822	280.25494	388.48398	-112.39500	168.80702	96.05141	-76.70130	251.89774	91.54915	-27.04469	190.35013	60.72473	-252.35298	249.47565	55.81588	-231.77881	302.67026	48.76287	-136.55811	-90.05935	937.14771	-131.24794	-122.18909	761.15051	-126.21902	3.19078	500.89868	-129.78844	-120.45557	521.93658	-182.10986	-89.74088	418.91199	-89.42004	-135.99608	349.20651	-136.34828	-44.03584	99.79147	-86.07316	-122.52322	87.59461	-46.08381	-53.30841	67.00918	-272.63519	-110.35055	51.58070	-240.90900	-177.03981	57.28382	-594.30823	266.49527	25.54544	-929.84222	-121.89194	33.69976	-519.47772	71.85072	44.91535	-1119.92188	77.32641	55.42524	-71.75671	164.35646	1148.26929	-47.63925	-13.71130	1262.60962	-11.55138	650.24347	18.88408	-4.32461	-539.69312	34.37676	-301.39844	81.96642	1046.66968	
86	0.340	-98.67735	88.11816	1479.56323	-51.22507	74.17837	1254.81738	-94.34522	74.78242	1129.49707	-242.52068	85.44889	1401.22620	-289.91833	80.18904	1252.07727	-51.80898	174.20544	1435.99084	-201.06342	202.61572	1420.28809	-119.47520	224.94878	1457.03381	-96.09396	311.28241	1404.53101	-55.23643	370.07773	1275.54663	-107.51406	392.00955	1151.93237	-59.69139	443.11353	1227.91760	-50.64637	558.27814	1138.33521	-53.22575	656.26135	1025.24915	-91.21889	676.11890	1066.26318	-59.37589	709.23590	1003.22571	-67.94519	698.11279	957.47668	-82.70318	754.66937	1014.67902	-50.34735	-12.04903	1430.73950	-202.31635	-28.51345	1428.70837	-131.09003	-63.45080	1466.30334	-112.19937	-158.18782	1421.88525	-71.80864	-196.43484	1281.62915	-148.87701	-256.68359	1199.58887	-95.81308	-298.97864	1275.14429	-101.41401	-384.66571	1155.64197	-137.06316	-530.72882	1082.93323	-173.37106	-558.68170	1125.62537	-156.73665	-590.44244	1066.31177	-184.07126	-637.07330	1071.99109	-168.17334	-584.02911	1021.11322	-140.05501	77.02169	1728.57922	-253.46758	76.33579	1714.52222	-56.35660	88.26208	1648.00610	-62.37725	71.55771	1025.23523	-277.42749	153.89169	1011.48126	-283.67880	3.02622	1020.04742	-167.71782	228.99582	1054.23804	-185.44952	-73.39140	1058.49524	-127.91236	241.64412	926.78174	-263.69159	220.73755	749.97876	-124.35671	141.11398	484.44354	-130.55141	263.08221	518.44995	-176.32887	214.50890	408.76419	-119.62188	280.11377	388.34070	-112.45671	168.64735	96.39349	-76.95453	251.95375	91.54247	-27.15891	190.73232	60.62944	-252.35298	249.47565	55.81588	-231.65419	302.57123	48.47304	-136.55811	-90.05935	937.14771	-131.04391	-122.15527	761.10980	-126.21902	3.19078	500.89868	-129.78844	-120.45557	521.93658	-182.21983	-89.88796	418.78394	-89.28549	-135.88835	349.31592	-136.34828	-44.03584	99.79147	-85.78461	-122.27282	87.62199	-45.96724	-53.25105	66.98496	-272.63519	-110.35055	51.58070	-240.90900	-177.03981	57.28382	-594.41498	266.46777	25.51854	-929.84222	-121.89194	33.69976	-519.39417	71.73836	44.99410	-1119.92188	77.32641	55.42524	-71.65846	164.51247	1148.41418	-47.46013	-13.89875	1262.56335	-11.59513	650.26331	18.96683	-4.16119	-539.64282	34.38654	-301.39844	81.96642	1046.66968	
87	0.344	-98.67735	88.11816	1479.56323	-51.22507	74.17837	1254.81738	-94.34522	74.78242	1129.49707	-242.41153	85.52932	1401.26257	-290.05087	80.31763	1252.31433	-51.89642	173.87601	1436.01819	-201.06342	202.61572	1420.28809	-119.39692	224.91592	1457.12183	-95.99887	311.13425	1404.66675	-55.21118	369.94339	1275.52991	-107.51406	392.00955	1151.93237	-59.63283	443.21396	1228.00342	-50.41808	558.08569	1138.45483	-53.22575	656.26135	1025.24915	-91.21889	676.11890	1066.26318	-59.37589	709.23590	1003.22571	-67.94519	698.11279	957.47668	-82.70318	754.66937	1014.67902	-50.43865	-11.93621	1430.79919	-202.31635	-28.51345	1428.70837	-131.12115	-63.56058	1466.20789	-112.20097	-158.16814	1422.00659	-71.60497	-196.38306	1281.71704	-148.87701	-256.68359	1199.58887	-95.81972	-298.99658	1275.26367	-100.99688	-384.09070	1155.83691	-137.06316	-530.72882	1082.93323	-173.51480	-558.58862	1125.77344	-156.76837	-590.40863	1066.35339	-184.23164	-637.04016	1072.06189	-167.80244	-584.43872	1021.51288	-140.10358	77.00316	1728.67871	-253.29286	76.24570	1714.62720	-56.40968	88.42506	1647.92114	-62.19017	71.78352	1024.91199	-277.11560	153.74095	1011.40668	-283.67880	3.02622	1020.04742	-167.71782	228.99582	1054.23804	-185.44952	-73.39140	1058.49524	-127.96909	241.91092	926.80652	-263.69159	220.73755	749.97876	-124.35671	141.11398	484.44354	-130.55141	263.08221	518.44995	-176.32887	214.50890	408.76419	-119.62188	280.11377	388.34070	-112.45671	168.64735	96.39349	-76.68880	251.96919	91.30582	-27.06387	190.65176	60.78721	-252.35298	249.47565	55.81588	-231.65419	302.57123	48.47304	-136.55811	-90.05935	937.14771	-130.85121	-122.22566	761.17670	-126.21902	3.19078	500.89868	-129.78844	-120.45557	521.93658	-181.99005	-89.88762	418.67010	-89.28549	-135.88835	349.31592	-136.43231	-44.21023	99.71297	-85.88784	-122.48380	87.61703	-45.96724	-53.25105	66.98496	-272.63519	-110.35055	51.58070	-240.90900	-177.03981	57.28382	-594.41193	266.57086	25.48889	-929.95142	-121.84692	33.68814	-519.41071	71.95967	45.02350	-1119.92188	77.32641	55.42524	-71.61109	164.22646	1148.11194	-47.46013	-13.89875	1262.56335	-11.59513	650.26331	18.96683	-4.26367	-539.61664	34.37408	-301.31735	81.62927	1046.61243	
88	0.348	-98.67735	88.11816	1479.56323	-51.22507	74.17837	1254.81738	-94.34522	74.78242	1129.49707	-242.41153	85.52932	1401.26257	-289.91833	80.18904	1252.07727	-51.52952	174.08768	1435.92603	-201.06342	202.61572	1420.28809	-119.39692	224.91592	1457.12183	-95.95642	311.05252	1404.61414	-55.28086	369.79553	1275.50269	-107.51406	392.00955	1151.93237	-59.42227	443.35110	1227.96021	-50.43598	558.43182	1138.66492	-53.29439	656.39423	1025.38208	-91.13034	676.12415	1066.36877	-59.36386	709.07916	1003.24957	-67.60994	698.55560	958.15265	-82.81858	754.44165	1014.91064	-50.24519	-12.10373	1430.86267	-201.96072	-28.65306	1428.81909	-131.12115	-63.56058	1466.20789	-112.15263	-158.25302	1421.99451	-71.60497	-196.38306	1281.71704	-148.82823	-256.85806	1199.75598	-95.73669	-299.00116	1275.13611	-100.99688	-384.09070	1155.83691	-137.09995	-530.75964	1082.55286	-173.44040	-558.72662	1125.72998	-156.89583	-590.44391	1066.42273	-184.29794	-637.12878	1072.22034	-167.80244	-584.43872	1021.51288	-139.93291	76.91038	1728.61169	-253.47279	76.39674	1714.60779	-56.40968	88.42506	1647.92114	-62.12221	71.88130	1025.02429	-276.80508	153.74222	1011.29755	-283.67880	3.02622	1020.04742	-167.71782	228.99582	1054.23804	-185.20578	-73.60940	1058.58789	-127.78754	241.86182	926.95844	-263.69159	220.73755	749.97876	-124.35671	141.11398	484.44354	-130.06689	263.09543	518.62311	-176.32887	214.50890	408.76419	-119.31796	279.94101	388.13947	-112.45671	168.64735	96.39349	-76.68393	251.96065	91.56850	-27.15891	190.73232	60.62944	-252.39311	249.39206	55.88606	-231.65419	302.57123	48.47304	-136.55811	-90.05935	937.14771	-130.56178	-122.20058	761.18274	-126.21902	3.19078	500.89868	-129.63789	-120.56630	521.90247	-182.00175	-90.09696	418.90094	-89.42004	-135.99608	349.20651	-136.43231	-44.21023	99.71297	-85.78461	-122.27282	87.62199	-46.08381	-53.30841	67.00918	-272.64615	-110.45910	51.69688	-240.99548	-177.09178	57.42725	-594.30823	266.49527	25.54544	-929.95142	-121.84692	33.68814	-519.41260	71.81577	44.95951	-1119.97388	77.39835	55.47486	-71.45908	164.10722	1148.25146	-47.46013	-13.89875	1262.56335	-11.54067	650.23035	18.91148	-4.26367	-539.61664	34.37408	-301.31735	81.62927	1046.61243	
